<svg width="25" height="25" viewBox="0 0 25 25" fill="none" xmlns="http://www.w3.org/2000/svg">
<g clip-path="url(#clip0_1305_712)">
<path d="M12.4999 6.37826L3.01512 14.7441C2.9448 14.8075 2.85496 14.837 2.7777 14.8895V22.9165C2.7777 23.3001 3.08847 23.6109 3.47215 23.6109H9.94914L8.33326 20.4507L12.8519 17.673L10.2408 12.4985L16.6666 18.4351L12.1479 21.2129L13.8806 23.6109H21.5277C21.9114 23.6109 22.2221 23.3001 22.2221 22.9165V14.8913C22.1484 14.8409 22.0607 14.8123 21.9938 14.7524L12.4999 6.37826ZM24.7695 11.6439L22.2221 9.39431V3.47201C22.2221 3.08833 21.9114 2.77756 21.5277 2.77756H18.7499C18.3662 2.77756 18.0555 3.08833 18.0555 3.47201V5.7155L13.6609 1.83616C13.3298 1.53841 12.9149 1.38911 12.4999 1.38867C12.085 1.38824 11.6709 1.53668 11.3411 1.83442L0.230393 11.6439C-0.0547635 11.9004 -0.078635 12.3392 0.177875 12.6248L1.10669 13.6586C1.36277 13.9438 1.80201 13.9677 2.0876 13.7112L12.0407 4.93164C12.3033 4.7003 12.697 4.7003 12.9596 4.93164L22.9127 13.7107C23.1978 13.9668 23.6371 13.9434 23.8936 13.6582L24.8224 12.6243C25.0785 12.3392 25.055 11.9 24.7695 11.6439Z" fill="white"/>
</g>
<defs>
<clipPath id="clip0_1305_712">
<rect width="25" height="25" fill="white"/>
</clipPath>
</defs>
</svg>
