<svg width="25" height="22" viewBox="0 0 25 22" fill="none" xmlns="http://www.w3.org/2000/svg">
<path d="M22.6562 10.9375H2.34375C1.72215 10.9375 1.12601 11.1844 0.686468 11.624C0.24693 12.0635 0 12.6596 0 13.2812C0 13.9029 0.24693 14.499 0.686468 14.9385C1.12601 15.3781 1.72215 15.625 2.34375 15.625H22.6562C23.2779 15.625 23.874 15.3781 24.3135 14.9385C24.7531 14.499 25 13.9029 25 13.2812C25 12.6596 24.7531 12.0635 24.3135 11.624C23.874 11.1844 23.2779 10.9375 22.6562 10.9375ZM23.4375 17.1875H1.5625C1.3553 17.1875 1.15659 17.2698 1.01007 17.4163C0.86356 17.5628 0.78125 17.7615 0.78125 17.9688V18.75C0.78125 19.5788 1.11049 20.3737 1.69654 20.9597C2.28259 21.5458 3.07745 21.875 3.90625 21.875H21.0938C21.9226 21.875 22.7174 21.5458 23.3035 20.9597C23.8895 20.3737 24.2188 19.5788 24.2188 18.75V17.9688C24.2188 17.7615 24.1364 17.5628 23.9899 17.4163C23.8434 17.2698 23.6447 17.1875 23.4375 17.1875ZM2.86328 9.375H22.1367C23.8247 9.375 24.8037 7.23144 23.8369 5.66992C21.875 2.5 17.5562 0.00488281 12.5 0C7.44434 0.00488281 3.125 2.5 1.16309 5.66943C0.195312 7.23096 1.17529 9.375 2.86328 9.375ZM18.75 3.90625C18.9045 3.90625 19.0556 3.95207 19.184 4.03791C19.3125 4.12376 19.4126 4.24577 19.4718 4.38853C19.5309 4.53128 19.5464 4.68837 19.5162 4.83991C19.4861 4.99146 19.4117 5.13067 19.3024 5.23993C19.1932 5.34919 19.054 5.42359 18.9024 5.45374C18.7509 5.48388 18.5938 5.46841 18.451 5.40928C18.3083 5.35015 18.1863 5.25002 18.1004 5.12154C18.0146 4.99306 17.9688 4.84202 17.9688 4.6875C17.9688 4.4803 18.0511 4.28159 18.1976 4.13507C18.3441 3.98856 18.5428 3.90625 18.75 3.90625ZM12.5 2.34375C12.6545 2.34375 12.8056 2.38957 12.934 2.47541C13.0625 2.56126 13.1627 2.68327 13.2218 2.82603C13.2809 2.96878 13.2964 3.12587 13.2662 3.27741C13.2361 3.42896 13.1617 3.56817 13.0524 3.67743C12.9432 3.78669 12.804 3.86109 12.6524 3.89124C12.5009 3.92138 12.3438 3.90591 12.201 3.84678C12.0583 3.78765 11.9363 3.68752 11.8504 3.55904C11.7646 3.43056 11.7188 3.27952 11.7188 3.125C11.7188 2.9178 11.8011 2.71909 11.9476 2.57257C12.0941 2.42606 12.2928 2.34375 12.5 2.34375ZM6.25 3.90625C6.40452 3.90625 6.55556 3.95207 6.68404 4.03791C6.81252 4.12376 6.91265 4.24577 6.97178 4.38853C7.03091 4.53128 7.04638 4.68837 7.01624 4.83991C6.98609 4.99146 6.91169 5.13067 6.80243 5.23993C6.69317 5.34919 6.55396 5.42359 6.40241 5.45374C6.25087 5.48388 6.09378 5.46841 5.95103 5.40928C5.80827 5.35015 5.68626 5.25002 5.60041 5.12154C5.51457 4.99306 5.46875 4.84202 5.46875 4.6875C5.46875 4.4803 5.55106 4.28159 5.69757 4.13507C5.84409 3.98856 6.0428 3.90625 6.25 3.90625Z" fill="white"/>
</svg>
