<svg width="25" height="20" viewBox="0 0 25 20" fill="none" xmlns="http://www.w3.org/2000/svg">
<path d="M8.75 12.5H10V3.75H8.75C8.05977 3.75 7.5 4.30977 7.5 5V11.25C7.5 11.9402 8.05977 12.5 8.75 12.5ZM22.5 11.25V5C22.5 4.30977 21.9402 3.75 21.25 3.75H20V12.5H21.25C21.9402 12.5 22.5 11.9402 22.5 11.25ZM24.375 15H5V0.625C5 0.279687 4.72031 0 4.375 0H0.625C0.279687 0 0 0.279687 0 0.625V1.875C0 2.22031 0.279687 2.5 0.625 2.5H2.5V16.875C2.5 17.2203 2.77969 17.5 3.125 17.5H6.36484C6.29492 17.6965 6.25 17.9047 6.25 18.125C6.25 19.1605 7.08945 20 8.125 20C9.16055 20 10 19.1605 10 18.125C10 17.9047 9.95508 17.6965 9.88516 17.5H17.6148C17.5449 17.6965 17.5 17.9047 17.5 18.125C17.5 19.1605 18.3395 20 19.375 20C20.4105 20 21.25 19.1605 21.25 18.125C21.25 17.9047 21.2051 17.6965 21.1352 17.5H24.375C24.7203 17.5 25 17.2203 25 16.875V15.625C25 15.2797 24.7203 15 24.375 15ZM18.75 3.75V1.875C18.75 0.839453 17.9105 0 16.875 0H13.125C12.0895 0 11.25 0.839453 11.25 1.875V12.5H18.75V3.75ZM16.875 3.75H13.125V1.875H16.875V3.75Z" fill="white"/>
</svg>
