<svg width="25" height="25" viewBox="0 0 25 25" fill="none" xmlns="http://www.w3.org/2000/svg">
<g clip-path="url(#clip0_1305_714)">
<path d="M12.5 20.3125C18.1104 20.3125 22.6562 15.7666 22.6562 10.1562C22.6562 4.5459 18.1104 0 12.5 0C6.88965 0 2.34375 4.5459 2.34375 10.1562C2.34375 15.7666 6.88965 20.3125 12.5 20.3125ZM11.416 4.75586V3.93555C11.416 3.48633 11.7773 3.125 12.2266 3.125H12.7686C13.2178 3.125 13.5791 3.48633 13.5791 3.93555V4.76562C14.3359 4.80469 15.0684 5.06348 15.6787 5.51758C15.9521 5.71777 15.9814 6.11816 15.7373 6.35254L14.9414 7.10938C14.7559 7.29004 14.4775 7.29492 14.2578 7.1582C13.9941 6.99219 13.7012 6.90918 13.3887 6.90918H11.4893C11.0498 6.90918 10.6934 7.30957 10.6934 7.80273C10.6934 8.20312 10.9375 8.55957 11.2842 8.66211L14.3262 9.5752C15.5811 9.95117 16.46 11.1572 16.46 12.5098C16.46 14.1699 15.1709 15.5127 13.5742 15.5566V16.377C13.5742 16.8262 13.2129 17.1875 12.7637 17.1875H12.2217C11.7725 17.1875 11.4111 16.8262 11.4111 16.377V15.5469C10.6543 15.5078 9.92188 15.249 9.31152 14.7949C9.03809 14.5947 9.00879 14.1943 9.25293 13.96L10.0488 13.2031C10.2344 13.0225 10.5127 13.0176 10.7324 13.1543C10.9961 13.3203 11.2891 13.4033 11.6016 13.4033H13.501C13.9404 13.4033 14.2969 13.0029 14.2969 12.5098C14.2969 12.1094 14.0527 11.7529 13.7061 11.6504L10.6641 10.7373C9.40918 10.3613 8.53027 9.15527 8.53027 7.80273C8.53516 6.14258 9.81934 4.7998 11.416 4.75586ZM23.4375 17.1875H21.8506C20.8936 18.457 19.6729 19.5166 18.2861 20.3125H21.4014C21.6602 20.3125 21.8701 20.4883 21.8701 20.7031V21.4844C21.8701 21.6992 21.6602 21.875 21.4014 21.875H3.59375C3.33496 21.875 3.125 21.6992 3.125 21.4844V20.7031C3.125 20.4883 3.33496 20.3125 3.59375 20.3125H6.70898C5.32227 19.5166 4.10645 18.457 3.14453 17.1875H1.5625C0.698242 17.1875 0 17.8857 0 18.75V23.4375C0 24.3018 0.698242 25 1.5625 25H23.4375C24.3018 25 25 24.3018 25 23.4375V18.75C25 17.8857 24.3018 17.1875 23.4375 17.1875Z" fill="white"/>
</g>
<defs>
<clipPath id="clip0_1305_714">
<rect width="25" height="25" fill="white"/>
</clipPath>
</defs>
</svg>
